# xmcd CD database file
#
# Track frame offsets:
#	150
#	19126
#	45058
#	78025
#	107464
#	132769
#	155803
#	180843
#	210380
#
# Disc length: 3050 seconds
#
# Revision: 0
# Processed by: cddbd v1.5.2PL0 Copyright (c) Steve Scherf et al.
# Submitted via: CDex 1.51
#
DISCID=590be809
DTITLE=Willie Foster - Live at Airport Grocery
DYEAR=2011
DGENRE=Blues
TTITLE0=Just Messin' Round
TTITLE1=Love Everybody
TTITLE2=Honey Ain't Sweet
TTITLE3=Hoochie Coochie Man
TTITLE4=Janie On My Mind
TTITLE5=Promise Me Love
TTITLE6=Goin To St Louis
TTITLE7=My Dear Old Dad
TTITLE8=Willie's Boogie
EXTD=YEAR: 2011
EXTT0=
EXTT1=
EXTT2=
EXTT3=
EXTT4=
EXTT5=
EXTT6=
EXTT7=
EXTT8=
PLAYORDER=
